<?xml version="1.0" encoding="utf-8"?>
<!-- Generator: Adobe Illustrator 26.0.2, SVG Export Plug-In . SVG Version: 6.00 Build 0)  -->
<svg version="1.1" id="Layer_1" xmlns="http://www.w3.org/2000/svg" xmlns:xlink="http://www.w3.org/1999/xlink" x="0px" y="0px"
	 viewBox="0 0 32 32" style="enable-background:new 0 0 32 32;" xml:space="preserve">
<style type="text/css">
	.st0{fill:#000;stroke:#000000;stroke-width:3;stroke-linecap:round;stroke-miterlimit:10;}
	.st1{fill:#000;}
</style>
<g>
	<g>
		<path d="M3.4,16.83c-3.43-3.25-2.8-6.59-2.12-8.29c1.3-3.26,4.77-5.62,8.25-5.62c2.15,0,4.21,0.88,5.96,2.53L16,5.94l0.52-0.49
			c1.74-1.66,3.8-2.53,5.96-2.53c3.48,0,6.95,2.36,8.25,5.62c0.68,1.7,1.3,5.03-2.12,8.28L16,28.8L3.4,16.83z"/>
		<path d="M9.52,3.67c1.96,0,3.84,0.8,5.44,2.33L16,6.98L17.03,6c1.6-1.52,3.48-2.33,5.44-2.33c3.18,0,6.36,2.17,7.55,5.15
			c0.61,1.52,1.16,4.51-1.94,7.46L16,27.76L3.92,16.28c-3.1-2.95-2.55-5.94-1.94-7.46C3.17,5.83,6.34,3.67,9.52,3.67 M9.52,2.17
			c-7.18,0-13.35,8.82-6.64,15.2L16,29.83l13.12-12.46c6.71-6.38,0.54-15.2-6.64-15.2c-2.17,0-4.44,0.81-6.47,2.74
			C13.97,2.98,11.7,2.17,9.52,2.17L9.52,2.17z"/>
	</g>
</g>
</svg>
