<?xml version="1.0" encoding="utf-8"?>
<!-- Generator: Adobe Illustrator 26.0.2, SVG Export Plug-In . SVG Version: 6.00 Build 0)  -->
<svg version="1.1" id="Layer_1" xmlns="http://www.w3.org/2000/svg" xmlns:xlink="http://www.w3.org/1999/xlink" x="0px" y="0px"
	 viewBox="0 0 32 32" style="enable-background:new 0 0 32 32;" xml:space="preserve">
<style type="text/css">
	.st0{fill:none;stroke:#000000;stroke-width:3;stroke-linecap:round;stroke-miterlimit:10;}
	.st1{fill:#FFFFFF;}
</style>
<g>
	<g>
		<path d="M16,13.92c-2.87,0-5.39-1.83-6.27-4.56C9.52,8.71,9.42,8.02,9.42,7.33c0-3.63,2.95-6.58,6.58-6.58
			c3.63,0,6.58,2.95,6.58,6.58c0,0.69-0.11,1.37-0.31,2.03C21.39,12.09,18.87,13.92,16,13.92z"/>
		<path d="M16,1.5c3.22,0,5.83,2.62,5.83,5.83c0,0.61-0.09,1.22-0.28,1.8c-0.78,2.41-3.01,4.04-5.55,4.04s-4.78-1.62-5.55-4.03
			c-0.19-0.58-0.28-1.19-0.28-1.8C10.17,4.12,12.78,1.5,16,1.5 M16,0c-4.05,0-7.33,3.28-7.33,7.33c0,0.79,0.12,1.55,0.35,2.26
			c0.95,2.94,3.72,5.08,6.98,5.08s6.03-2.13,6.98-5.08c0.23-0.71,0.35-1.47,0.35-2.26C23.33,3.28,20.05,0,16,0L16,0z"/>
	</g>
	<g>
		<path d="M16.06,31.25c-9.13,0-14.02-1.72-14.04-2.96c-0.07-4.72,4.33-8.66,8.84-10.23c1.49,1.14,3.3,1.77,5.15,1.77
			c1.85,0,3.66-0.62,5.15-1.77c5.08,1.76,8.77,6.02,8.84,10.25c0,0.06,0,0.24-0.26,0.51C28.32,30.25,22.7,31.25,16.06,31.25z"/>
		<path d="M10.73,18.91c1.56,1.09,3.4,1.68,5.27,1.68c1.87,0,3.72-0.59,5.27-1.68c4.57,1.72,7.87,5.55,7.96,9.35
			c-0.54,0.8-4.85,2.24-13.18,2.24c-8.32,0-12.78-1.49-13.29-2.28C2.75,24.53,6.11,20.64,10.73,18.91 M21,17.23
			c-1.37,1.16-3.11,1.86-5,1.86s-3.63-0.7-5-1.86c-5.27,1.67-9.81,6.16-9.74,11.08C1.3,30.77,8.69,32,16.06,32
			s14.72-1.23,14.68-3.69C30.66,23.38,26.27,18.9,21,17.23L21,17.23z"/>
	</g>
</g>
</svg>
