<?xml version="1.0" encoding="utf-8"?>
<!-- Generator: Adobe Illustrator 26.0.2, SVG Export Plug-In . SVG Version: 6.00 Build 0)  -->
<svg version="1.1" id="Layer_1" xmlns="http://www.w3.org/2000/svg" xmlns:xlink="http://www.w3.org/1999/xlink" x="0px" y="0px"
	 viewBox="0 0 32 32" style="enable-background:new 0 0 32 32;" xml:space="preserve">
<style type="text/css">
	.st0{fill:none;stroke:#000000;stroke-width:3;stroke-linecap:round;stroke-miterlimit:10;}
	.st1{fill:#FFFFFF;}
</style>
<g>
	<g>
		<path d="M13.71,3.25c5.77,0,10.46,4.69,10.46,10.46c0,2.8-1.09,5.42-3.06,7.4c-1.97,1.97-4.6,3.06-7.4,3.06
			c-5.77,0-10.46-4.69-10.46-10.46S7.94,3.25,13.71,3.25 M13.71,0.25c-7.44,0-13.46,6.02-13.46,13.46c0,7.44,6.02,13.46,13.46,13.46
			c3.72,0,7.08-1.5,9.52-3.94c2.43-2.43,3.94-5.8,3.94-9.52C27.17,6.27,21.15,0.25,13.71,0.25L13.71,0.25z"/>
	</g>
	<line class="st0" x1="23.03" y1="23.03" x2="30.25" y2="30.25"/>
</g>
</svg>
